<svg width="687" height="734" viewBox="0 0 687 734" fill="none" xmlns="http://www.w3.org/2000/svg">
<path d="M294.001 123.5C295.001 115.5 301.501 113 309.001 118L310.5 120.5V119V117.5L310 94L315 69.5L325 44.5L398.5 28L436.5 58.5V109.5L440 110C448.059 108.089 451.109 109.112 453 116C453.818 121.798 453.784 125.647 452.5 134C448.627 145.086 444.243 148.518 432.5 149.5L432 164.5C430.607 174.299 428.827 178.498 424 183.5V217C426.312 220.118 427.385 222.355 429 227C429 236.5 422.282 248.802 418 258.5C408.265 277.956 401.621 286.365 387.5 297C377.478 290.801 369.793 284.536 352.5 268.5C341 256.237 336.526 248.354 332 232.5V216V190.5C328.231 187.242 326.255 184.854 323 179.5C319.204 172.035 318.258 167.208 317 155.5C308.403 156.173 304.277 154.377 300.001 149C294.856 138.369 293.335 132.734 294.001 123.5Z" fill="#FDA68A"/>
<path d="M379.5 228.5C355.748 223.489 346.424 213.435 332 191.5C359.108 214.202 368.727 220.297 379.5 218C393.434 214.597 403.301 208.689 423.5 184.5C419.8 196.734 416.257 203.064 407.5 213.5C398.34 224.068 392.305 227.608 379.5 228.5Z" fill="#E6886E"/>
<path d="M377 182C353.5 183 352 166.5 352 166.5L400.5 163C400.5 163 400.5 181 377 182Z" fill="#A93830"/>
<path d="M391 177.5C383.629 182.547 366.5 181.5 363 179C363 179 369.94 174.73 375 174.5C386 174 391 177.5 391 177.5Z" fill="#D75A56" stroke="#D75A56"/>
<path d="M357.888 171.536C354.949 170.029 352.5 166.5 352.5 166.5L400.5 163C400.5 163 398.541 167.519 397.071 169.025C396.361 169.753 387.867 170.716 378.949 171.346C369.419 172.02 359.406 172.314 357.888 171.536Z" fill="white"/>
<path d="M310.5 124.81L314 119.81V98.3102C321.648 85.6476 323.027 77.7018 320.5 62.0326C320.22 53.5839 322.081 50.3599 329 47.3102C344.419 48.6924 351.719 48.647 362.5 46.8102C360.442 49.5324 360.05 51.067 360.5 53.8102C365.408 47.8028 368.921 46.4051 376.5 47.3102C392.538 48.8686 399.975 46.8595 410.5 38.3102C414.676 41.6967 416.487 44.3498 418.5 50.8102C418.975 58.5091 419.5 61.8729 421 65.8102C423.936 71.0038 422.307 74.8102 428.5 82.3102C434.693 89.8102 435.998 101.52 437.5 122.31L440 119.31V107.81C439.742 103.34 440.542 101.379 443.5 98.8102L445.5 51.8102C443.822 33.3518 438.85 26.2035 422 19.8102C420.835 13.149 418.805 10.1108 412 6.31017V9.8102C399.519 -0.20048 389.967 -1.91141 368.5 1.8102C360.833 4.47687 344.1 9.8102 338.5 9.8102C323.164 12.3156 317.337 15.711 312.5 25.8102C309 31.3102 302.604 38.8647 295 40.3102L305 42.8102C305 42.8102 298.852 49.2505 297 55.3102C295.117 61.4726 296 72.8102 296 72.8102C305.5 97.3102 302 106.81 302 106.81L308.5 114.31C308.5 114.31 310.031 121.519 310.5 124.81Z" fill="#6B393A"/>
<path d="M354 88.0002C338.549 89.4179 330.865 91.3557 319 97.0002C326.42 85.8644 333.501 82.4096 351 81.0002C353.617 83.5665 354.187 85.11 354 88.0002Z" fill="#6B393A"/>
<path d="M387 86.5002C386.403 81.8733 387.128 80.1075 390.5 78.5002C409.732 78.3101 416.744 80.9343 422.5 90.5002C411.985 86.8952 404.243 86.0103 387 86.5002Z" fill="#6B393A"/>
<path d="M411.606 111.16C411.136 117.771 412.315 101.186 402.839 100.512C393.363 99.8387 392.184 116.424 392.654 109.814C393.124 103.203 397.747 98.1453 402.981 98.5172C408.214 98.8892 412.076 104.55 411.606 111.16Z" fill="black"/>
<path d="M353.036 113.425C353.866 120 351.783 103.504 342.358 104.694C332.933 105.884 335.016 122.381 334.186 115.805C333.355 109.23 336.902 103.367 342.107 102.71C347.313 102.052 352.206 106.85 353.036 113.425Z" fill="black"/>
<path d="M387.5 137.5C377.867 148.76 372.041 149.036 361 138.5C359.875 137.088 360.27 135.787 361.5 135.5C366.598 138.071 373 139.364 374.5 139.335C376.5 139.296 380.922 137.772 385 135C387.268 134.117 387.857 135.399 387.5 137.5Z" fill="#E5866D" stroke="#E5866D"/>
<path d="M232 733V703.5L232.493 697L380.526 672L533 699L530.533 733H232Z" fill="#2A2A2A" stroke="#C9A67E"/>
<path d="M368.369 727L242.111 706.968H240.5L381.791 681L506 702.5L399.508 723.29L381.791 706.968L368.369 727Z" fill="#1C1C1C"/>
<path d="M216.5 287C209.805 296.456 206.548 304.363 201.5 317.5H232L241 583C239.765 633.568 229.121 654.423 226.5 705C279.055 707.14 309.317 707.496 363.5 705L380 683.5L400.5 705C454.667 705.576 483.88 704.316 534 699.5C530.437 681.137 530.398 650.523 529.5 604.5V428.5H578L597.5 441C596.396 475.436 592.003 490.001 575 504.5C598.902 532.146 609.172 540.824 623 546.5C645.425 553.66 655.543 554.506 668.5 549.5C686.988 535.689 688.045 521.401 686.5 493.5C683.388 477.5 673.5 459.5 658 438.5C641.645 408.792 627.191 386.174 602.5 346.5C573.648 304.767 560.484 289.283 544 280C526.179 268.708 506.352 261.417 456.5 247L387.5 297L298.5 247.5C283.496 252.757 274.411 256.364 258 263C234.017 273.388 223.591 278.816 216.5 287Z" fill="#3864AD"/>
<path d="M533 336L526.5 388.5L537 396.5C535.388 374.479 534.512 361.248 533 336Z" fill="#002D79"/>
<path d="M628 438C610.055 435.848 599.01 433.537 578.5 428.5L598.5 441L607 442.5C622.786 448.286 634.012 449.468 657 449L628 438Z" fill="#002D79"/>
<path d="M337 247C331.271 235.28 330.171 228.516 332 216C311.071 229.082 304.022 234.978 299.5 243.5C296.967 250.11 298.414 253.838 300.988 260.47L301 260.5C308.255 282.168 312.222 291.378 319 299C328.078 290.723 333.477 286.877 343.5 281C358.628 287.186 368.432 290.693 387.5 297C358.714 276.726 346.288 265.664 337 247Z" fill="white"/>
<path d="M424 217V214C443.411 224.664 450 231 454.5 237C459 243 456.763 268.184 452 294C440.656 286.543 434.139 282.626 422 276.5L387.5 297C404.469 285.769 413.329 271.953 428 234.5C430.439 228.36 429.551 224.527 424 217Z" fill="white"/>
<path d="M59.0343 504.38C59.794 503.504 60.897 503 62.0571 503H324.356C325.574 503 326.726 503.555 327.485 504.507L376.496 566.007C378.584 568.627 376.718 572.5 373.367 572.5H8.75957C5.33192 572.5 3.49195 568.471 5.73676 565.88L59.0343 504.38Z" fill="#FEFEFE"/>
<mask id="path-18-inside-1_363_139" fill="white">
<rect x="59" y="317" width="265" height="186" rx="3"/>
</mask>
<rect x="59" y="317" width="265" height="186" rx="3" fill="white" stroke="black" stroke-width="22" mask="url(#path-18-inside-1_363_139)"/>
<path d="M6 566.692C7.84824 569.083 9.15168 569.646 13.957 569.462H370.032C374.037 568.954 375.171 568.017 376 566V572.231C374.053 574.522 372.698 574.467 370.032 575H13.957C9.2571 574.995 7.65479 574.39 6 572.231V566.692Z" fill="#D9D9D9" stroke="white"/>
<path d="M148.621 547.515C148.844 546.625 149.644 546 150.562 546H232.4C233.335 546 234.146 546.648 234.351 547.561L237.951 563.561C238.233 564.811 237.282 566 236 566H146.562C145.26 566 144.306 564.777 144.621 563.515L148.621 547.515Z" fill="#D9D9D9"/>
<path d="M65.2996 508.585C66.0557 507.586 67.2357 507 68.4879 507H314.536C315.775 507 316.944 507.574 317.701 508.554L337.019 533.554C339.051 536.183 337.177 540 333.854 540H49.5486C46.2435 540 44.3644 536.219 46.3602 533.585L65.2996 508.585Z" fill="#D9D9D9"/>
<path d="M83.7129 512.5L81.3271 515.5H64.7871L67.1729 512.5H83.7129Z" fill="#6B6C70" stroke="#67686A"/>
<path d="M104.023 512.5L101.865 515.5H86.9766L89.1348 512.5H104.023Z" fill="#6B6C70" stroke="#67686A"/>
<path d="M124.191 512.5L122.691 515.5H106.977L109.135 512.5H124.191Z" fill="#6B6C70" stroke="#67686A"/>
<path d="M144.278 512.5L143.153 515.5H128.949L130.074 512.5H144.278Z" fill="#6B6C70" stroke="#67686A"/>
<path d="M164.167 512.5L163.588 515.5H149.334L149.913 512.5H164.167Z" fill="#6B6C70" stroke="#67686A"/>
<path d="M230.606 512.5L231.185 515.5H245.439L244.86 512.5H230.606Z" fill="#6B6C70" stroke="#67686A"/>
<path d="M251.606 512.5L252.185 515.5H266.439L265.86 512.5H251.606Z" fill="#6B6C70" stroke="#67686A"/>
<path d="M271.851 512.5L273.521 515.5H287.649L285.979 512.5H271.851Z" fill="#6B6C70" stroke="#67686A"/>
<path d="M293.115 512.5L295.788 515.5H319.279L316.231 512.5H293.115Z" fill="#6B6C70" stroke="#67686A"/>
<path d="M184.545 512.5V515.5H170.273V512.5H184.545Z" fill="#6B6C70" stroke="#67686A"/>
<path d="M204.772 512.5V515.5H190.5V512.5H204.772Z" fill="#6B6C70" stroke="#67686A"/>
<path d="M224.772 512.5V515.5H210.5V512.5H224.772Z" fill="#6B6C70" stroke="#67686A"/>
<path d="M84.1172 518.5L81.7168 522.5H60.0303L63.1816 518.5H84.1172Z" fill="#6B6C70" stroke="#67686A"/>
<path d="M105.135 518.5L102.832 522.5H87.8652L90.168 518.5H105.135Z" fill="#6B6C70" stroke="#67686A"/>
<path d="M126.262 518.5L124.662 522.5H109.291L111.194 518.5H126.262Z" fill="#6B6C70" stroke="#67686A"/>
<path d="M147.325 518.5L146.108 522.5H131.675L132.892 518.5H147.325Z" fill="#6B6C70" stroke="#67686A"/>
<path d="M168.411 518.5L167.756 522.5H152.589L153.244 518.5H168.411Z" fill="#6B6C70" stroke="#67686A"/>
<path d="M237.87 518.5L238.889 522.5H253.996L252.178 518.5H237.87Z" fill="#6B6C70" stroke="#67686A"/>
<path d="M258.85 518.5L260.795 522H274.879L272.934 518.5H258.85Z" fill="#6B6C70" stroke="#67686A"/>
<path d="M279.778 518.5L281.611 522.5H296.222L294.389 518.5H279.778Z" fill="#6B6C70" stroke="#67686A"/>
<path d="M300.115 519.5L302.788 522.5H324.385L321.712 519.5H300.115Z" fill="#6B6C70" stroke="#67686A"/>
<path d="M189.5 518.5V522.5H174.5V518.5H189.5Z" fill="#6B6C70" stroke="#67686A"/>
<path d="M210.5 518.5V522.5H195.5V518.5H210.5Z" fill="#6B6C70" stroke="#67686A"/>
<path d="M230.629 518.5L231.828 522.5H217.871L216.672 518.5H230.629Z" fill="#6B6C70" stroke="#67686A"/>
<path d="M84.5723 508.15L82.4473 509.85H68.9277L71.0527 508.15H84.5723Z" fill="#6B6C70" stroke="#67686A" stroke-width="0.3"/>
<path d="M103.072 508.15L100.947 509.85H87.4277L89.5527 508.15H103.072Z" fill="#6B6C70" stroke="#67686A" stroke-width="0.3"/>
<path d="M279.428 508.15L281.553 509.85H295.072L292.947 508.15H279.428Z" fill="#6B6C70" stroke="#67686A" stroke-width="0.3"/>
<path d="M299.428 508.15L301.553 509.85H315.072L312.947 508.15H299.428Z" fill="#6B6C70" stroke="#67686A" stroke-width="0.3"/>
<path d="M122.137 508.15L120.438 509.85H106.863L108.562 508.15H122.137Z" fill="#6B6C70" stroke="#67686A" stroke-width="0.3"/>
<path d="M141.7 508.15L140.425 509.85H126.8L128.075 508.15H141.7Z" fill="#6B6C70" stroke="#67686A" stroke-width="0.3"/>
<path d="M160.257 508.15L159.407 509.85H145.743L146.593 508.15H160.257Z" fill="#6B6C70" stroke="#67686A" stroke-width="0.3"/>
<path d="M242.243 508.15L243.093 509.85H256.757L255.907 508.15H242.243Z" fill="#6B6C70" stroke="#67686A" stroke-width="0.3"/>
<path d="M261.243 508.15L262.093 509.85H275.757L274.907 508.15H261.243Z" fill="#6B6C70" stroke="#67686A" stroke-width="0.3"/>
<path d="M179.308 508.15L178.883 509.85H165.192L165.617 508.15H179.308Z" fill="#6B6C70" stroke="#67686A" stroke-width="0.3"/>
<path d="M198.35 508.15V509.85H184.65V508.15H198.35Z" fill="#6B6C70" stroke="#67686A" stroke-width="0.3"/>
<path d="M216.85 508.15V509.85H203.15V508.15H216.85Z" fill="#6B6C70" stroke="#67686A" stroke-width="0.3"/>
<path d="M236.85 508.15V509.85H222.15V508.15H236.85Z" fill="#6B6C70" stroke="#67686A" stroke-width="0.3"/>
<path d="M108.645 533.5L105.829 538.5H90.8555L93.6709 533.5H108.645Z" fill="#6B6C70" stroke="#67686A"/>
<path d="M87.6445 533.5L84.8291 538.5H69.8555L72.6709 533.5H87.6445Z" fill="#6B6C70" stroke="#67686A"/>
<path d="M67.0654 533.5L63.7324 538.5H46.9844L50.6328 533.5H67.0654Z" fill="#6B6C70" stroke="#67686A"/>
<path d="M130.739 533.5L128.793 538H113.761L115.707 533.5H130.739Z" fill="#6B6C70" stroke="#67686A"/>
<path d="M251.636 533.5L252.844 538.5H270.239L268.08 533.5H251.636Z" fill="#6B6C70" stroke="#67686A"/>
<path d="M244.666 533.5L246.75 538.5H137.141L138.391 533.5H244.666Z" fill="#6B6C70" stroke="#67686A"/>
<path d="M295.87 533.5L298.787 538.5H315.112L310.772 533.5H295.87Z" fill="#6B6C70" stroke="#67686A"/>
<path d="M317.34 536.15L319.793 538.85H334.66L332.207 536.15H317.34Z" fill="#6B6C70" stroke="#67686A" stroke-width="0.3"/>
<path d="M275.26 536.15L276.814 538.85H291.74L290.186 536.15H275.26Z" fill="#6B6C70" stroke="#67686A" stroke-width="0.3"/>
<path d="M90.0654 525.5L86.7324 530.5H53.0586L57.1748 525.5H90.0654Z" fill="#6B6C70" stroke="#67686A"/>
<path d="M112.145 525.5L109.329 530.5H94.3555L97.1709 525.5H112.145Z" fill="#6B6C70" stroke="#67686A"/>
<path d="M133.739 525.5L131.793 530H116.761L118.707 525.5H133.739Z" fill="#6B6C70" stroke="#67686A"/>
<path d="M155.378 525.5L154.111 530.5H138.643L139.909 525.5H155.378Z" fill="#6B6C70" stroke="#67686A"/>
<path d="M177.428 525.5L176.577 530.5H160.643L161.909 525.5H177.428Z" fill="#6B6C70" stroke="#67686A"/>
<path d="M249.62 525.5L250.708 530.5H266.27L264.326 525.5H249.62Z" fill="#6B6C70" stroke="#67686A"/>
<path d="M269.805 525.5L272.271 530.5H289.195L286.729 525.5H269.805Z" fill="#6B6C70" stroke="#67686A"/>
<path d="M292.435 525.5L295.768 530.5H329.883L325.418 525.5H292.435Z" fill="#6B6C70" stroke="#67686A"/>
<path d="M199.5 525.5V530.5H183.5V525.5H199.5Z" fill="#6B6C70" stroke="#67686A"/>
<path d="M220.939 525.5L221.773 530.5H206.424L205.59 525.5H220.939Z" fill="#6B6C70" stroke="#67686A"/>
<path d="M241.939 525.5L242.773 530.5H227.424L226.59 525.5H241.939Z" fill="#6B6C70" stroke="#67686A"/>
<path d="M36 509.5C36 509.5 56.7175 504.834 59 513.5C60.8323 520.457 47.9719 529.637 37 528.962L25.5 543C22.5144 535.177 20.7457 531.055 20 517C24.909 513.742 28.3698 512.09 36 509.5Z" fill="#FFA689"/>
<path d="M27 541L30.5 525C32.7918 527.152 34.2474 527.985 37 529.129L27 541Z" fill="#E58867"/>
<path d="M142.5 575.5H36C39.4557 582.3 41.4294 584.368 45 586C50.6019 586.936 53.9373 586.223 61.7144 584.561L62 584.5C65.744 589.38 69.9128 590.346 79 587.5C82.5 593.5 90.0613 592.489 99.5 586L102.5 587.5C118.168 587.836 126.92 584.549 142.5 575.5Z" fill="#FF9776"/>
<path d="M62.5 584.5L77.5 576L64.5 587C63.623 586.662 63.1763 586.16 62.5 584.5Z" fill="#E7896F"/>
<path d="M79 587.5L93.5 577L81 590C80.123 589.662 79.6763 589.16 79 587.5Z" fill="#E7896F"/>
<path d="M100.5 586.5L109 576.5L104 587C103.06 586.974 102.5 587.5 100.5 586.5Z" fill="#E7896F"/>
<path d="M562.5 417.597C576.849 428.434 587.254 435.68 597.5 442C595.534 476.462 591.231 491.364 574.5 504.5C562.735 491.677 556.962 484.795 548 473C521.572 471.074 507.576 470.011 501.5 468.5C492.469 463.35 486.85 459.563 476 451.5C471.451 447.026 470.379 444.199 473 438.5C464.756 429.282 462.913 424.289 469.5 416C464.159 411.461 465.127 408.126 469.5 401H467.5L427.5 400.5C420.5 400.5 413.335 398.026 413.5 394C415.095 383.705 429.635 382.951 458 382.5H517.5C535.622 395.585 549.883 406.67 562.5 417.597Z" fill="#FDA68A"/>
<path d="M492.5 427C492.5 427 469.782 415.719 469.5 416C469.218 416.282 467.389 418.767 467 420C475.327 423.133 481.716 424.55 492.5 427Z" fill="#E7876D"/>
<path d="M486.5 445C480.47 442.639 477.439 441.233 473 438.5C471.989 440.842 471.836 441.635 472 442.5C476.361 444.788 480.147 444.719 486.5 445Z" fill="#E7876D"/>
<path d="M470 401L502 400.5H504.5C485.314 402.453 476.651 403.464 467.5 405L469.5 401.5L470 401Z" fill="#E58A6F"/>
<rect x="158" y="398" width="34" height="17" fill="#D75A56"/>
<path d="M164.153 400.636V413H160.797V400.636H164.153ZM177.287 405.273H173.882C173.858 404.991 173.793 404.735 173.689 404.506C173.588 404.277 173.447 404.079 173.266 403.914C173.089 403.745 172.874 403.617 172.62 403.528C172.367 403.435 172.079 403.389 171.757 403.389C171.193 403.389 170.717 403.526 170.326 403.8C169.94 404.073 169.646 404.466 169.445 404.977C169.248 405.488 169.149 406.102 169.149 406.818C169.149 407.575 169.25 408.209 169.451 408.72C169.656 409.227 169.952 409.609 170.338 409.867C170.725 410.12 171.189 410.247 171.733 410.247C172.043 410.247 172.32 410.209 172.566 410.132C172.811 410.052 173.025 409.937 173.206 409.788C173.387 409.639 173.534 409.46 173.646 409.251C173.763 409.038 173.842 408.798 173.882 408.533L177.287 408.557C177.247 409.08 177.1 409.613 176.846 410.157C176.593 410.696 176.232 411.195 175.765 411.654C175.303 412.109 174.729 412.475 174.045 412.752C173.361 413.03 172.566 413.169 171.66 413.169C170.525 413.169 169.507 412.926 168.606 412.439C167.708 411.952 166.998 411.235 166.475 410.289C165.955 409.344 165.696 408.187 165.696 406.818C165.696 405.442 165.961 404.283 166.493 403.341C167.024 402.395 167.74 401.681 168.642 401.198C169.543 400.711 170.55 400.467 171.66 400.467C172.441 400.467 173.16 400.574 173.816 400.787C174.472 401.001 175.047 401.312 175.542 401.723C176.037 402.129 176.436 402.631 176.737 403.226C177.039 403.822 177.222 404.504 177.287 405.273ZM178.472 403.341V400.636H189.217V403.341H185.498V413H182.19V403.341H178.472Z" fill="white"/>
<path d="M202.726 399.909H204.311V408.577C204.311 409.472 204.1 410.271 203.678 410.974C203.26 411.673 202.67 412.224 201.907 412.629C201.145 413.03 200.25 413.23 199.223 413.23C198.196 413.23 197.301 413.03 196.538 412.629C195.775 412.224 195.183 411.673 194.761 410.974C194.344 410.271 194.135 409.472 194.135 408.577V399.909H195.72V408.449C195.72 409.088 195.861 409.657 196.142 410.156C196.423 410.65 196.824 411.04 197.344 411.325C197.868 411.607 198.494 411.747 199.223 411.747C199.952 411.747 200.578 411.607 201.102 411.325C201.626 411.04 202.027 410.65 202.304 410.156C202.585 409.657 202.726 409.088 202.726 408.449V399.909ZM207.521 407.094V413H206.012V403.182H207.469V404.716H207.597C207.827 404.217 208.177 403.817 208.646 403.514C209.114 403.207 209.719 403.054 210.461 403.054C211.126 403.054 211.707 403.19 212.206 403.463C212.704 403.732 213.092 404.141 213.369 404.69C213.646 405.236 213.785 405.926 213.785 406.761V413H212.276V406.864C212.276 406.092 212.076 405.491 211.675 405.061C211.275 404.626 210.725 404.409 210.026 404.409C209.545 404.409 209.114 404.513 208.735 404.722C208.36 404.931 208.064 405.236 207.847 405.636C207.629 406.037 207.521 406.523 207.521 407.094ZM215.281 413V403.182H216.79V413H215.281ZM216.048 401.545C215.754 401.545 215.501 401.445 215.288 401.245C215.079 401.045 214.974 400.804 214.974 400.523C214.974 400.241 215.079 400.001 215.288 399.8C215.501 399.6 215.754 399.5 216.048 399.5C216.342 399.5 216.594 399.6 216.803 399.8C217.016 400.001 217.122 400.241 217.122 400.523C217.122 400.804 217.016 401.045 216.803 401.245C216.594 401.445 216.342 401.545 216.048 401.545ZM222.563 403.182V404.46H217.475V403.182H222.563ZM218.958 400.83H220.466V410.188C220.466 410.614 220.528 410.933 220.651 411.146C220.779 411.355 220.941 411.496 221.137 411.568C221.338 411.636 221.548 411.67 221.77 411.67C221.936 411.67 222.073 411.662 222.179 411.645C222.286 411.624 222.371 411.607 222.435 411.594L222.742 412.949C222.639 412.987 222.497 413.026 222.313 413.064C222.13 413.107 221.898 413.128 221.617 413.128C221.191 413.128 220.773 413.036 220.364 412.853C219.959 412.67 219.622 412.391 219.354 412.016C219.09 411.641 218.958 411.168 218.958 410.597V400.83Z" fill="black"/>
<path d="M160.197 418.182V418.679H158.219V418.182H160.197ZM158.795 417.267H159.382V420.906C159.382 421.072 159.406 421.196 159.454 421.279C159.504 421.36 159.567 421.415 159.643 421.443C159.721 421.47 159.803 421.483 159.889 421.483C159.954 421.483 160.007 421.48 160.048 421.473C160.09 421.465 160.123 421.458 160.148 421.453L160.267 421.98C160.227 421.995 160.172 422.01 160.1 422.025C160.029 422.041 159.939 422.05 159.83 422.05C159.664 422.05 159.501 422.014 159.342 421.943C159.185 421.872 159.054 421.763 158.95 421.617C158.847 421.471 158.795 421.287 158.795 421.065V417.267ZM162.833 422.089C162.592 422.089 162.372 422.044 162.175 421.953C161.978 421.86 161.821 421.727 161.705 421.553C161.589 421.377 161.531 421.165 161.531 420.916C161.531 420.697 161.574 420.52 161.66 420.384C161.746 420.247 161.862 420.139 162.006 420.061C162.15 419.983 162.309 419.925 162.483 419.887C162.659 419.847 162.835 419.816 163.012 419.793C163.244 419.763 163.433 419.74 163.577 419.725C163.723 419.709 163.829 419.682 163.895 419.643C163.963 419.605 163.997 419.539 163.997 419.445V419.425C163.997 419.179 163.93 418.989 163.795 418.853C163.663 418.717 163.462 418.649 163.191 418.649C162.911 418.649 162.692 418.71 162.533 418.833C162.374 418.956 162.262 419.087 162.197 419.226L161.64 419.027C161.74 418.795 161.872 418.614 162.038 418.485C162.205 418.354 162.388 418.263 162.585 418.212C162.784 418.159 162.979 418.132 163.172 418.132C163.294 418.132 163.435 418.147 163.594 418.177C163.755 418.205 163.91 418.264 164.059 418.353C164.21 418.443 164.335 418.578 164.434 418.759C164.534 418.939 164.583 419.181 164.583 419.484V422H163.997V421.483H163.967C163.927 421.566 163.861 421.654 163.768 421.749C163.675 421.843 163.552 421.924 163.398 421.99C163.244 422.056 163.056 422.089 162.833 422.089ZM162.923 421.562C163.155 421.562 163.351 421.517 163.51 421.426C163.67 421.335 163.791 421.217 163.873 421.073C163.955 420.929 163.997 420.777 163.997 420.618V420.081C163.972 420.111 163.917 420.138 163.833 420.163C163.75 420.186 163.654 420.207 163.544 420.225C163.437 420.242 163.331 420.257 163.229 420.27C163.128 420.281 163.046 420.291 162.983 420.3C162.83 420.32 162.688 420.352 162.555 420.397C162.424 420.44 162.318 420.505 162.237 420.593C162.157 420.679 162.118 420.797 162.118 420.946C162.118 421.15 162.193 421.304 162.344 421.408C162.496 421.511 162.689 421.562 162.923 421.562ZM166.525 423.432C166.426 423.432 166.337 423.424 166.259 423.407C166.181 423.392 166.128 423.377 166.098 423.362L166.247 422.845C166.389 422.882 166.515 422.895 166.625 422.885C166.734 422.875 166.831 422.826 166.916 422.738C167.002 422.652 167.081 422.512 167.152 422.318L167.261 422.02L165.849 418.182H166.486L167.54 421.224H167.579L168.633 418.182H169.27L167.649 422.557C167.576 422.754 167.486 422.917 167.378 423.047C167.27 423.177 167.145 423.274 167.003 423.337C166.862 423.4 166.703 423.432 166.525 423.432ZM171.681 422.089C171.439 422.089 171.22 422.044 171.023 421.953C170.825 421.86 170.669 421.727 170.553 421.553C170.437 421.377 170.379 421.165 170.379 420.916C170.379 420.697 170.422 420.52 170.508 420.384C170.594 420.247 170.709 420.139 170.854 420.061C170.998 419.983 171.157 419.925 171.331 419.887C171.507 419.847 171.683 419.816 171.86 419.793C172.092 419.763 172.28 419.74 172.425 419.725C172.57 419.709 172.677 419.682 172.743 419.643C172.811 419.605 172.845 419.539 172.845 419.445V419.425C172.845 419.179 172.778 418.989 172.643 418.853C172.511 418.717 172.309 418.649 172.039 418.649C171.759 418.649 171.54 418.71 171.381 418.833C171.221 418.956 171.11 419.087 171.045 419.226L170.488 419.027C170.588 418.795 170.72 418.614 170.886 418.485C171.053 418.354 171.236 418.263 171.433 418.212C171.632 418.159 171.827 418.132 172.019 418.132C172.142 418.132 172.283 418.147 172.442 418.177C172.603 418.205 172.758 418.264 172.907 418.353C173.058 418.443 173.183 418.578 173.282 418.759C173.382 418.939 173.431 419.181 173.431 419.484V422H172.845V421.483H172.815C172.775 421.566 172.709 421.654 172.616 421.749C172.523 421.843 172.4 421.924 172.246 421.99C172.092 422.056 171.903 422.089 171.681 422.089ZM171.771 421.562C172.003 421.562 172.198 421.517 172.358 421.426C172.518 421.335 172.639 421.217 172.72 421.073C172.803 420.929 172.845 420.777 172.845 420.618V420.081C172.82 420.111 172.765 420.138 172.681 420.163C172.598 420.186 172.502 420.207 172.392 420.225C172.285 420.242 172.179 420.257 172.077 420.27C171.976 420.281 171.893 420.291 171.831 420.3C171.678 420.32 171.536 420.352 171.403 420.397C171.272 420.44 171.166 420.505 171.085 420.593C171.005 420.679 170.965 420.797 170.965 420.946C170.965 421.15 171.041 421.304 171.192 421.408C171.344 421.511 171.537 421.562 171.771 421.562ZM175.212 422V416.909H175.798V418.788H175.848C175.891 418.722 175.951 418.638 176.027 418.535C176.105 418.43 176.216 418.338 176.36 418.256C176.506 418.174 176.703 418.132 176.952 418.132C177.273 418.132 177.557 418.212 177.802 418.373C178.047 418.534 178.239 418.762 178.376 419.057C178.514 419.352 178.582 419.7 178.582 420.101C178.582 420.505 178.514 420.856 178.376 421.152C178.239 421.447 178.048 421.676 177.804 421.838C177.561 421.999 177.28 422.08 176.962 422.08C176.716 422.08 176.52 422.039 176.373 421.958C176.225 421.875 176.112 421.781 176.032 421.677C175.952 421.571 175.891 421.483 175.848 421.413H175.778V422H175.212ZM175.788 420.091C175.788 420.379 175.831 420.634 175.915 420.854C176 421.073 176.123 421.244 176.286 421.369C176.448 421.491 176.647 421.553 176.882 421.553C177.127 421.553 177.332 421.488 177.496 421.359C177.662 421.228 177.786 421.052 177.869 420.832C177.954 420.61 177.996 420.363 177.996 420.091C177.996 419.822 177.954 419.58 177.871 419.365C177.79 419.148 177.667 418.976 177.501 418.85C177.337 418.723 177.131 418.659 176.882 418.659C176.643 418.659 176.443 418.72 176.281 418.841C176.118 418.96 175.996 419.127 175.913 419.343C175.83 419.556 175.788 419.806 175.788 420.091ZM181.233 422.089C180.991 422.089 180.772 422.044 180.575 421.953C180.377 421.86 180.221 421.727 180.105 421.553C179.989 421.377 179.931 421.165 179.931 420.916C179.931 420.697 179.974 420.52 180.06 420.384C180.146 420.247 180.261 420.139 180.406 420.061C180.55 419.983 180.709 419.925 180.883 419.887C181.059 419.847 181.235 419.816 181.412 419.793C181.644 419.763 181.832 419.74 181.977 419.725C182.122 419.709 182.229 419.682 182.295 419.643C182.363 419.605 182.397 419.539 182.397 419.445V419.425C182.397 419.179 182.33 418.989 182.195 418.853C182.063 418.717 181.861 418.649 181.591 418.649C181.311 418.649 181.092 418.71 180.933 418.833C180.773 418.956 180.662 419.087 180.597 419.226L180.04 419.027C180.14 418.795 180.272 418.614 180.438 418.485C180.605 418.354 180.788 418.263 180.985 418.212C181.184 418.159 181.379 418.132 181.571 418.132C181.694 418.132 181.835 418.147 181.994 418.177C182.155 418.205 182.31 418.264 182.459 418.353C182.61 418.443 182.735 418.578 182.834 418.759C182.934 418.939 182.983 419.181 182.983 419.484V422H182.397V421.483H182.367C182.327 421.566 182.261 421.654 182.168 421.749C182.075 421.843 181.952 421.924 181.798 421.99C181.644 422.056 181.455 422.089 181.233 422.089ZM181.323 421.562C181.555 421.562 181.75 421.517 181.909 421.426C182.07 421.335 182.191 421.217 182.272 421.073C182.355 420.929 182.397 420.777 182.397 420.618V420.081C182.372 420.111 182.317 420.138 182.233 420.163C182.15 420.186 182.054 420.207 181.944 420.225C181.837 420.242 181.731 420.257 181.629 420.27C181.528 420.281 181.445 420.291 181.383 420.3C181.23 420.32 181.088 420.352 180.955 420.397C180.824 420.44 180.718 420.505 180.637 420.593C180.557 420.679 180.517 420.797 180.517 420.946C180.517 421.15 180.593 421.304 180.744 421.408C180.896 421.511 181.089 421.562 181.323 421.562ZM187.389 419.037L186.862 419.186C186.829 419.098 186.78 419.013 186.715 418.93C186.652 418.846 186.566 418.776 186.456 418.721C186.347 418.667 186.207 418.639 186.036 418.639C185.803 418.639 185.608 418.693 185.452 418.801C185.298 418.907 185.221 419.042 185.221 419.206C185.221 419.352 185.274 419.467 185.38 419.551C185.486 419.636 185.652 419.706 185.877 419.763L186.444 419.902C186.785 419.985 187.04 420.112 187.207 420.282C187.375 420.451 187.458 420.669 187.458 420.936C187.458 421.155 187.395 421.35 187.269 421.523C187.145 421.695 186.971 421.831 186.747 421.93C186.524 422.03 186.263 422.08 185.967 422.08C185.577 422.08 185.255 421.995 185 421.826C184.745 421.657 184.583 421.41 184.515 421.085L185.072 420.946C185.125 421.152 185.225 421.306 185.373 421.408C185.522 421.511 185.717 421.562 185.957 421.562C186.23 421.562 186.447 421.504 186.608 421.388C186.771 421.271 186.852 421.13 186.852 420.966C186.852 420.833 186.805 420.722 186.713 420.633C186.62 420.542 186.477 420.474 186.285 420.429L185.649 420.28C185.299 420.197 185.042 420.069 184.878 419.895C184.716 419.719 184.634 419.499 184.634 419.236C184.634 419.02 184.695 418.83 184.816 418.664C184.938 418.498 185.105 418.368 185.316 418.274C185.528 418.179 185.768 418.132 186.036 418.132C186.414 418.132 186.711 418.215 186.926 418.381C187.143 418.546 187.298 418.765 187.389 419.037ZM188.971 422V418.182H189.558V422H188.971ZM189.27 417.545C189.155 417.545 189.057 417.507 188.974 417.429C188.893 417.351 188.852 417.257 188.852 417.148C188.852 417.038 188.893 416.945 188.974 416.867C189.057 416.789 189.155 416.75 189.27 416.75C189.384 416.75 189.482 416.789 189.563 416.867C189.646 416.945 189.687 417.038 189.687 417.148C189.687 417.257 189.646 417.351 189.563 417.429C189.482 417.507 189.384 417.545 189.27 417.545ZM192.814 422.08C192.456 422.08 192.147 421.995 191.889 421.826C191.63 421.657 191.432 421.424 191.292 421.127C191.153 420.831 191.084 420.492 191.084 420.111C191.084 419.723 191.155 419.381 191.297 419.084C191.441 418.786 191.642 418.553 191.899 418.386C192.157 418.217 192.459 418.132 192.804 418.132C193.072 418.132 193.314 418.182 193.53 418.281C193.745 418.381 193.921 418.52 194.059 418.699C194.197 418.878 194.282 419.087 194.315 419.325H193.728C193.684 419.151 193.584 418.997 193.43 418.863C193.278 418.727 193.072 418.659 192.814 418.659C192.585 418.659 192.384 418.719 192.212 418.838C192.041 418.956 191.908 419.122 191.812 419.338C191.717 419.551 191.67 419.803 191.67 420.091C191.67 420.386 191.717 420.643 191.809 420.862C191.904 421.08 192.036 421.25 192.207 421.371C192.379 421.492 192.582 421.553 192.814 421.553C192.966 421.553 193.104 421.526 193.229 421.473C193.353 421.42 193.458 421.344 193.544 421.244C193.631 421.145 193.692 421.026 193.728 420.886H194.315C194.282 421.112 194.2 421.315 194.069 421.495C193.94 421.674 193.768 421.817 193.554 421.923C193.342 422.027 193.095 422.08 192.814 422.08ZM197.463 418.182V418.679H195.484V418.182H197.463ZM196.061 417.267H196.648V420.906C196.648 421.072 196.672 421.196 196.72 421.279C196.77 421.36 196.833 421.415 196.909 421.443C196.987 421.47 197.069 421.483 197.155 421.483C197.22 421.483 197.273 421.48 197.314 421.473C197.355 421.465 197.389 421.458 197.413 421.453L197.533 421.98C197.493 421.995 197.437 422.01 197.366 422.025C197.295 422.041 197.205 422.05 197.095 422.05C196.93 422.05 196.767 422.014 196.608 421.943C196.451 421.872 196.32 421.763 196.215 421.617C196.113 421.471 196.061 421.287 196.061 421.065V417.267ZM199.403 422.04C199.281 422.04 199.175 421.996 199.087 421.908C199 421.82 198.956 421.715 198.956 421.592C198.956 421.47 199 421.364 199.087 421.277C199.175 421.189 199.281 421.145 199.403 421.145C199.526 421.145 199.631 421.189 199.719 421.277C199.807 421.364 199.851 421.47 199.851 421.592C199.851 421.674 199.83 421.748 199.788 421.816C199.749 421.884 199.695 421.939 199.627 421.98C199.561 422.02 199.486 422.04 199.403 422.04ZM203.084 422.08C202.74 422.08 202.437 421.998 202.177 421.833C201.919 421.669 201.716 421.44 201.571 421.145C201.426 420.85 201.354 420.505 201.354 420.111C201.354 419.713 201.426 419.366 201.571 419.069C201.716 418.773 201.919 418.542 202.177 418.378C202.437 418.214 202.74 418.132 203.084 418.132C203.429 418.132 203.731 418.214 203.989 418.378C204.249 418.542 204.452 418.773 204.596 419.069C204.742 419.366 204.815 419.713 204.815 420.111C204.815 420.505 204.742 420.85 204.596 421.145C204.452 421.44 204.249 421.669 203.989 421.833C203.731 421.998 203.429 422.08 203.084 422.08ZM203.084 421.553C203.346 421.553 203.562 421.485 203.731 421.351C203.9 421.217 204.025 421.04 204.106 420.822C204.187 420.603 204.228 420.366 204.228 420.111C204.228 419.856 204.187 419.618 204.106 419.397C204.025 419.177 203.9 418.999 203.731 418.863C203.562 418.727 203.346 418.659 203.084 418.659C202.823 418.659 202.607 418.727 202.438 418.863C202.269 418.999 202.144 419.177 202.063 419.397C201.982 419.618 201.941 419.856 201.941 420.111C201.941 420.366 201.982 420.603 202.063 420.822C202.144 421.04 202.269 421.217 202.438 421.351C202.607 421.485 202.823 421.553 203.084 421.553ZM206.927 419.703V422H206.34V418.182H206.907V418.778H206.957C207.046 418.585 207.182 418.429 207.364 418.311C207.547 418.192 207.782 418.132 208.07 418.132C208.329 418.132 208.555 418.185 208.749 418.291C208.943 418.396 209.094 418.555 209.201 418.768C209.309 418.981 209.363 419.249 209.363 419.574V422H208.776V419.614C208.776 419.314 208.698 419.08 208.543 418.913C208.387 418.744 208.173 418.659 207.901 418.659C207.714 418.659 207.547 418.7 207.399 418.781C207.253 418.862 207.138 418.981 207.054 419.136C206.969 419.292 206.927 419.481 206.927 419.703ZM211.651 416.909V422H211.065V416.909H211.651ZM213.356 422V418.182H213.943V422H213.356ZM213.654 417.545C213.54 417.545 213.441 417.507 213.358 417.429C213.277 417.351 213.237 417.257 213.237 417.148C213.237 417.038 213.277 416.945 213.358 416.867C213.441 416.789 213.54 416.75 213.654 416.75C213.769 416.75 213.866 416.789 213.948 416.867C214.03 416.945 214.072 417.038 214.072 417.148C214.072 417.257 214.03 417.351 213.948 417.429C213.866 417.507 213.769 417.545 213.654 417.545ZM216.234 419.703V422H215.647V418.182H216.214V418.778H216.264C216.353 418.585 216.489 418.429 216.671 418.311C216.854 418.192 217.089 418.132 217.377 418.132C217.636 418.132 217.862 418.185 218.056 418.291C218.25 418.396 218.401 418.555 218.508 418.768C218.616 418.981 218.67 419.249 218.67 419.574V422H218.083V419.614C218.083 419.314 218.005 419.08 217.85 418.913C217.694 418.744 217.48 418.659 217.208 418.659C217.021 418.659 216.854 418.7 216.706 418.781C216.56 418.862 216.445 418.981 216.361 419.136C216.276 419.292 216.234 419.481 216.234 419.703ZM221.973 422.08C221.605 422.08 221.287 421.998 221.021 421.836C220.755 421.672 220.551 421.443 220.407 421.15C220.264 420.855 220.193 420.512 220.193 420.121C220.193 419.73 220.264 419.385 220.407 419.087C220.551 418.787 220.751 418.553 221.008 418.386C221.267 418.217 221.568 418.132 221.913 418.132C222.112 418.132 222.308 418.165 222.502 418.232C222.696 418.298 222.873 418.406 223.032 418.555C223.191 418.702 223.317 418.898 223.412 419.141C223.506 419.385 223.554 419.685 223.554 420.041V420.29H220.61V419.783H222.957C222.957 419.567 222.914 419.375 222.828 419.206C222.743 419.037 222.622 418.904 222.465 418.806C222.309 418.708 222.125 418.659 221.913 418.659C221.679 418.659 221.477 418.717 221.306 418.833C221.137 418.947 221.007 419.097 220.916 419.281C220.825 419.464 220.779 419.662 220.779 419.872V420.21C220.779 420.499 220.829 420.743 220.929 420.944C221.03 421.142 221.17 421.294 221.349 421.398C221.528 421.501 221.736 421.553 221.973 421.553C222.127 421.553 222.266 421.531 222.39 421.488C222.516 421.443 222.625 421.377 222.716 421.289C222.807 421.2 222.877 421.089 222.927 420.956L223.494 421.115C223.434 421.307 223.334 421.476 223.193 421.622C223.052 421.766 222.878 421.879 222.671 421.96C222.464 422.04 222.231 422.08 221.973 422.08Z" fill="black"/>
</svg>
